<svg id="Group_51937" data-name="Group 51937" xmlns="http://www.w3.org/2000/svg" width="374.355" height="308.444" viewBox="0 0 374.355 308.444">
  <path id="Subtraction_2" data-name="Subtraction 2" d="M22.284,127.456v0c2.368-.25,4.76-.492,7.112-.719a8.639,8.639,0,0,1,1.325-3.7c1.138-1.825.865-3.307-.886-4.807-1.138-.97-2.942-2.846-2.243-4.5,1.4-3.3.189-6.037-1.089-8.929l-.221-.5a2.051,2.051,0,0,1-.115-.714,1.769,1.769,0,0,0-.156-.795,25.156,25.156,0,0,1-1.2-2.6,12.758,12.758,0,0,0-3.072-5,9.116,9.116,0,0,0-1-.758,8.7,8.7,0,0,1-1.789-1.509,6.113,6.113,0,0,1-1.573-3.61,6.828,6.828,0,0,1,.111-1.876A7.133,7.133,0,0,1,21.2,82.308a9.687,9.687,0,0,1,1.988-.838,6.956,6.956,0,0,1,1.973-.352,2.377,2.377,0,0,1,2.466,2.117,3.54,3.54,0,0,0,.559,1.238,4.5,4.5,0,0,0,1.565,1.333,17.608,17.608,0,0,1-.711-2.044,5.843,5.843,0,0,1,.479-5.063,17.9,17.9,0,0,0,1.637-3.361c.14-.375.279-.756.412-1.126.232-.641.471-1.3.729-1.949q.194-.479.388-.954l.025-.06.354-.871q.371-.89.744-1.777l.029-.07c.575-1.37,1.167-2.782,1.726-4.165a.043.043,0,0,0,.008-.012.039.039,0,0,1,.007-.012,21.226,21.226,0,0,1,1.441-2.724c1.6-2.7,3.246-5.483.714-9.221a3.763,3.763,0,0,1,.134-4.623,16.944,16.944,0,0,1,4.122-3.737c.161-.112.329-.216.492-.317.736-.455,1.432-.884,1.432-1.991.008-7.683,3.105-10.385,12.273-10.708,1.661-.056,4.44-.15,4.662-2.89.181-2.2.041-3.348-.5-4.089s-1.511-1.116-3.46-1.341c-.042-.006-.087-.009-.134-.012-.3-.02-.63-.043-.665-.675a8.6,8.6,0,0,0,1.079.073,3.8,3.8,0,0,0,3.115-1.239,5.714,5.714,0,0,0,1.077-3.489c.146,3.312,1.939,4.79,5.817,4.79.151,0,.308,0,.466-.007a3.512,3.512,0,0,1-2.167.613,4.27,4.27,0,0,0-.939.1c-1.862.481-2.623,1.653-2.468,3.8.064.848.354,1.242.914,1.242a3.368,3.368,0,0,0,.939-.2l.024-.007a3.175,3.175,0,0,1,.876-.195h.042l.569.024h.012a13.217,13.217,0,0,1,3.379.43A4.059,4.059,0,0,0,70,28.125a3.223,3.223,0,0,0,3.326-2.789c.483-4.97,2.129-6.674,7.657-7.929,1.117-.247,1.516-.607,1.781-1.6a10.523,10.523,0,0,1,3.543-5.6,9.375,9.375,0,0,1,5.93-2.078,10.065,10.065,0,0,1,1.123.064,9.853,9.853,0,0,1,6.345,3.049,9.443,9.443,0,0,1,2.326,6.565v.1c-.009.842-.016,1.508,1.159,1.547,3.472.13,7.514.275,11.539.359h.024a1.545,1.545,0,0,0,1.456-.894.428.428,0,0,0-.227-.511,3.846,3.846,0,0,1-.916-.866,2.452,2.452,0,0,0-1.873-1.15,2.615,2.615,0,0,0-.709.107,1.381,1.381,0,0,1-.371.051c-.388,0-1.065-.163-1.242-1.257a8.744,8.744,0,0,0,1.591.159c2.619,0,4.227-1.52,4.917-4.646a3.94,3.94,0,0,0,.7,3.156c1.009,1.191,2.876,1.512,5.369,1.627a2.91,2.91,0,0,1-2.4.988l-.13,0a3.072,3.072,0,0,0-2.9,2.163,1.173,1.173,0,0,0,.131.925c.447.7,1.705.971,2.624,1.168.968.2,1.957.482,2.913.756a20.151,20.151,0,0,0,5.3,1.026h.151a28.4,28.4,0,0,0,11.722-2.436,15.69,15.69,0,0,1,6.579-1.989,7.315,7.315,0,0,1,4.025,1.207,6.944,6.944,0,0,1,3.128,3.983,7.338,7.338,0,0,1-.693,5.175c-.325.654-.473,1.074-.326,1.421.124.292.466.518,1.077.711a4.23,4.23,0,0,1,3.242,4.408c-.041,1.3.38,1.58,1.668,1.78a12.185,12.185,0,0,1,6.145,2.573,9.968,9.968,0,0,1,3.174,5.4c.052.218.09.446.128.667a3.134,3.134,0,0,0,1.205,2.366c2.193,1.508,3.184,3.528,3.21,6.548.015,3.372,2.295,5.558,6.42,6.156a5.583,5.583,0,0,1,4.319,2.707,5.175,5.175,0,0,1,.512,1.222c.765,2.77,2.863,4.6,4.815,6.028.627.459,1.274.9,1.9,1.318,3.208,2.163,4.473,4.664,3.761,7.434a6.256,6.256,0,0,1-3.354,3.936,8.92,8.92,0,0,1-3.337.935c-.03,0-.061,0-.1,0-.092,0-.186-.008-.285-.017l-.022,0c-.1-.009-.21-.02-.32-.02a1.014,1.014,0,0,0-.882.442c.3.063.58.126.854.186.5.11.965.214,1.437.3.8.138,1.324.464,1.487.917a1.367,1.367,0,0,1-.393,1.327c-1.228,1.446-1.385,2.975-1.461,4.823a6.235,6.235,0,0,1-1.9,4.233,4.78,4.78,0,0,0-1.437,3.242c-.2,1.639-.281,3.317-.354,4.941a37.538,37.538,0,0,1-1.011,8.346,13.441,13.441,0,0,0-.215,7.832,4.85,4.85,0,0,1-.575,4.009,7.751,7.751,0,0,0-.416.742h-.122c-12.049,0-26.719-1.949-40.906-3.834h-.01c-14.442-1.919-29.376-3.9-41.873-3.9-11.509,0-25.974,2.524-39.963,4.965-6.73,1.174-13.689,2.389-20.139,3.283A133.39,133.39,0,0,1,22.284,127.456ZM3.736,121.581a13.2,13.2,0,0,1-.81-1.113A18.428,18.428,0,0,1,.3,112.693a47.027,47.027,0,0,1-.162-9.079c.055.637.119,1.314.193,2.01A79.149,79.149,0,0,0,3.738,121.58Zm206.95-6.3h0a85.149,85.149,0,0,0,2.442-19.429,60.99,60.99,0,0,1-.043,10.568A24.9,24.9,0,0,1,210.686,115.281ZM6.519,106.965h0c-.186-.009-.374-.013-.577-.013-.124,0-.258,0-.436.006.292-.028.637-.061.99-.112l.024.118ZM3.2,70.943h0a46.62,46.62,0,0,1,1.78-7.027,61.675,61.675,0,0,1,6.661-13.609,86.912,86.912,0,0,1,10.4-13.054c.709-.74,1.445-1.485,2.189-2.215C14.08,45.931,7.007,58.011,3.2,70.943ZM26.781,59.337h-.061a3.817,3.817,0,0,1-3.912-3.442,3.146,3.146,0,0,1,.979-2.228,4.284,4.284,0,0,1,2.985-1.257c.076,0,.134,0,.188,0A4.242,4.242,0,0,1,29.623,53.6a3.234,3.234,0,0,1,1.13,2.4A3.9,3.9,0,0,1,26.781,59.337Zm153.461-3.629a2.916,2.916,0,0,1-3.2-2.823,2.682,2.682,0,0,1,.65-2.009,3.474,3.474,0,0,1,2.512-1.009c.077,0,.153,0,.228,0a3,3,0,0,1,3.23,2.776,3.056,3.056,0,0,1-3.2,3.066C180.386,55.706,180.314,55.707,180.243,55.707ZM177.6,46.281a4.82,4.82,0,0,1-3.053-1.2,3.936,3.936,0,0,1-1.484-2.68,3.518,3.518,0,0,1,1.064-2.575,4.914,4.914,0,0,1,3.488-1.537h.015a4.581,4.581,0,0,1,3.072,1.174,3.741,3.741,0,0,1,1.288,2.779,4.434,4.434,0,0,1-4.336,4.039ZM151.836,9.53A116.14,116.14,0,0,0,106.9.539c-3.36,0-6.764.144-10.118.428-2.575.218-5.147.508-7.644.862A111.749,111.749,0,0,1,109.04,0a101.729,101.729,0,0,1,38.1,7.507c1.568.631,3.15,1.311,4.7,2.021Z" transform="translate(80.725 50.879)" fill="#00c6ff"/>
  <g id="Group_51608" data-name="Group 51608" transform="translate(73.027 184.286)">
    <path id="Path_21290" data-name="Path 21290" d="M101.357,268.627a7.8,7.8,0,0,1-6.154-1.445,13.092,13.092,0,0,1-5.7,2.238c-4.833.832-8.448-2.1-9.391-7.5a9,9,0,0,1,1.767-7.537,11.608,11.608,0,0,1,7.528-4.011l1.505-.235c-.24-.8-.359-1.193-.6-1.988q2.926-1.218,5.485-2.077c.89,6.059,1.335,9.088,2.226,15.147.359,2.441,1.641,3.5,3.895,3.177,1.159-.164,1.739-.245,2.9-.4.224,1.63.336,2.445.559,4.075-1.61.221-2.415.334-4.023.564M86.9,242.763a2.918,2.918,0,0,1-5.767.852,2.873,2.873,0,0,1,2.449-3.233,2.824,2.824,0,0,1,3.319,2.381m5.224,10.19c-.883.182-1.732.35-2.514.485a5.991,5.991,0,0,0-3.882,2.384A5.613,5.613,0,0,0,84.7,260.3c.674,3.895,2.455,5.655,5.259,5.206a15.275,15.275,0,0,0,3.916-1.171l-1.753-11.382m2.39-11.361a2.827,2.827,0,0,1-2.444,3.14,2.871,2.871,0,0,1-3.377-2.346,2.915,2.915,0,0,1,2.531-3.211,2.85,2.85,0,0,1,3.29,2.418" transform="translate(-79.939 -231.527)" fill="#1c1c1c"/>
    <path id="Path_21291" data-name="Path 21291" d="M130.162,265.55c-1.375.153-2.062.232-3.438.392a7.187,7.187,0,0,1-4.657-.82,7.187,7.187,0,0,1-4.226,1.919c-2.179.285-3.268.432-5.444.735l-.567-4.074c1.712-.238,2.568-.354,4.281-.581,2.256-.3,3.212-1.615,2.907-4.018-.224-1.759-.336-2.639-.56-4.4-.672-2.31-1.011-3.464-1.69-5.772,2.176-.777,3.267-1.162,5.452-1.922.554,4.609.831,6.915,1.385,11.525.289,2.4,1.537,3.448,3.8,3.188.922-.106,1.383-.158,2.306-.261l.455,4.088m-9.148-25.76a2.809,2.809,0,0,1-2.568,3.078,2.86,2.86,0,0,1-3.3-2.39,2.908,2.908,0,0,1,2.614-3.1,2.871,2.871,0,0,1,3.254,2.409" transform="translate(-88.238 -231.064)" fill="#1c1c1c"/>
    <path id="Path_21292" data-name="Path 21292" d="M164.326,262c-4.1.277-6.151.431-10.249.773a15.12,15.12,0,0,0-3.907-.213,21.611,21.611,0,0,0-3.853.906c-4.645.442-6.966.685-11.6,1.21-.186-1.634-.278-2.452-.464-4.086,3.155-.357,4.733-.527,7.891-.846a8,8,0,0,1-2.974-5.666,8.7,8.7,0,0,1,2.039-6.871,11.968,11.968,0,0,1,15.068-1.346,8.7,8.7,0,0,1,3.221,6.4,7.862,7.862,0,0,1-1.967,6.106c2.608-.2,3.913-.3,6.522-.473l.277,4.1m-17.336-25.355a2.956,2.956,0,1,1-3.226-2.5,2.88,2.88,0,0,1,3.226,2.5m7.493,15.777a6.025,6.025,0,0,0-2.062-4.415,5.281,5.281,0,0,0-7.091.633,6.151,6.151,0,0,0-1.2,4.706c.434,4.458,2.357,6.514,5.82,6.205a4.461,4.461,0,0,0,3.7-2.52,8.192,8.192,0,0,0,.838-4.609M154.591,236a2.933,2.933,0,0,1-5.833.488,2.93,2.93,0,0,1,5.833-.488" transform="translate(-94.072 -230.046)" fill="#1c1c1c"/>
    <path id="Path_21293" data-name="Path 21293" d="M190.713,260.593c-1.38.058-2.071.088-3.452.153a7.164,7.164,0,0,1-4.583-1.141,7.356,7.356,0,0,1-4.342,1.623c-2.189.132-3.284.2-5.472.355-.114-1.641-.17-2.462-.284-4.1,1.7-.118,2.554-.174,4.257-.281,2.267-.142,3.357-1.391,3.218-3.81-.1-1.77-.152-2.656-.254-4.426-.53-2.349-.8-3.524-1.333-5.873,2.221-.625,3.333-.934,5.563-1.54.234,4.638.351,6.956.586,11.593.122,2.419,1.294,3.546,3.516,3.446.963-.044,1.445-.065,2.408-.105.069,1.644.1,2.466.172,4.109M177.1,234.61a2.806,2.806,0,0,1-2.743,2.918,2.775,2.775,0,0,1-3.051-2.591A2.817,2.817,0,0,1,174,232.011a2.781,2.781,0,0,1,3.1,2.6m7.66-.418a2.805,2.805,0,0,1-2.775,2.887,2.774,2.774,0,0,1-3.021-2.625,2.816,2.816,0,0,1,2.727-2.9,2.781,2.781,0,0,1,3.069,2.634" transform="translate(-103.716 -229.553)" fill="#1c1c1c"/>
    <path id="Path_21294" data-name="Path 21294" d="M219.162,243.841c-.156,1.9-.234,2.853-.388,4.755.021,2.541.032,3.811.053,6.352.044,5.346-3.388,8.045-10.249,8.21-5.138.124-7.708.211-12.844.435-.072-1.643-.108-2.465-.18-4.109,2.816-.124,4.224-.178,7.04-.271a9.492,9.492,0,0,1-1.562-4.839,10.841,10.841,0,0,1,2.833-8.232q3.025-3.179,8.5-3.268a22.324,22.324,0,0,1,6.8.965m-4.9,5.128c-.166-1.058-.25-1.587-.418-2.644a8.064,8.064,0,0,0-2.462-.277q-5.954.114-5.752,7.313c.108,3.837,1.506,5.714,4.147,5.655,3.29-.072,4.928-2.147,4.869-6.214a25.137,25.137,0,0,0-.385-3.833" transform="translate(-110.027 -232.499)" fill="#1c1c1c"/>
    <path id="Path_21295" data-name="Path 21295" d="M263.406,259.859a7.766,7.766,0,0,1-5.772-2.541,13.037,13.037,0,0,1-5.991,1.164c-4.888-.064-7.9-3.6-7.839-9.088a9.018,9.018,0,0,1,3.1-7.09,11.548,11.548,0,0,1,8.106-2.573l1.517.043c-.09-.826-.135-1.238-.225-2.064q3.09-.666,5.755-1.044l-.57,15.3c-.092,2.466.974,3.737,3.243,3.833,1.167.05,1.751.075,2.918.13l-.192,4.109c-1.62-.076-2.43-.112-4.05-.178m-9.479-28.065a2.908,2.908,0,0,1-5.807-.212,2.867,2.867,0,0,1,2.987-2.732,2.818,2.818,0,0,1,2.82,2.944m3.271,10.971c-.9.018-1.761.029-2.554.019a5.962,5.962,0,0,0-4.238,1.638,5.621,5.621,0,0,0-1.818,4.216c-.046,3.953,1.379,6.008,4.208,6.076a15.159,15.159,0,0,0,4.052-.438c.14-4.6.21-6.906.35-11.511m4.408-10.735a2.824,2.824,0,0,1-2.967,2.642,2.867,2.867,0,0,1-2.885-2.921,2.91,2.91,0,0,1,3.066-2.7,2.847,2.847,0,0,1,2.787,2.976" transform="translate(-122.583 -228.849)" fill="#1c1c1c"/>
    <path id="Path_21296" data-name="Path 21296" d="M314.469,268.071c-.972-.1-1.458-.155-2.431-.256a7.652,7.652,0,0,1-4.457-1.823,6.939,6.939,0,0,1-4.493.959,8.415,8.415,0,0,1-5.946-3.119,6.471,6.471,0,0,1-5.769,2.175,8.734,8.734,0,0,1-6.039-3.105,8.571,8.571,0,0,1-.936.9,7.051,7.051,0,0,1-5.027,1.453c-2.135-.113-3.2-.165-5.338-.261l.185-4.109c1.7.076,2.556.118,4.26.2,2.221.114,3.4-1.007,3.537-3.425.236-3.52.354-5.28.591-8.8,1.872-.3,2.808-.442,4.685-.726l-.721,11.356c-.014.219-.021.328-.035.547a5.859,5.859,0,0,0,3.927,1.819c2.174.152,3.372-.948,3.552-3.363.265-3.536.4-5.3.661-8.841,1.9-.262,2.846-.389,4.747-.637-.385,4.7-.576,7.051-.961,11.751A5.5,5.5,0,0,0,302.3,262.8c2.171.191,3.39-.886,3.614-3.3l.414-4.459c-.135-2.4-.2-3.6-.347-6,2.291-.286,3.438-.424,5.736-.69-.464,4.638-.7,6.957-1.16,11.595-.236,2.365.754,3.655,2.969,3.888l1.384.147c-.175,1.636-.263,2.454-.439,4.089" transform="translate(-130.45 -233.87)" fill="#1c1c1c"/>
    <path id="Path_21297" data-name="Path 21297" d="M356.815,273.3c-1.315-.2-1.973-.3-3.289-.492a6.894,6.894,0,0,1-4.145-2.025,10.534,10.534,0,0,1-8.617,2.859,6.552,6.552,0,0,1-5.442-4.075,7.264,7.264,0,0,1-3.534.42c-1.907-.215-2.861-.32-4.768-.521.172-1.636.258-2.454.431-4.09,1.422.15,2.133.226,3.554.384,2.076.231,3.241-.658,3.529-2.635.937-6.43,5.823-9.93,12.964-8.975a22.822,22.822,0,0,1,6.659,1.987c-.5,1.849-.743,2.773-1.236,4.624-.233,1.628-.35,2.443-.583,4.072-.344,2.4.592,3.728,2.844,4.063.9.134,1.352.2,2.252.338l-.618,4.066m-9.663-4.671,1.128-8.286c-.011-1.035-.016-1.552-.028-2.587a7.233,7.233,0,0,0-2.2-.617c-3.882-.513-6.14,1.612-6.727,6.374-.469,3.81.9,6.279,3.1,6.563a6.193,6.193,0,0,0,4.723-1.448" transform="translate(-144.239 -235.392)" fill="#1c1c1c"/>
    <path id="Path_21298" data-name="Path 21298" d="M382.123,266.195c-.731,4.187-3.766,6.247-7.961,5.56-3.411-.559-5.118-.826-8.534-1.34l.61-4.067c3,.45,4.494.684,7.487,1.168,2.249.365,3.552-.665,3.967-3.145l2.4-14.333c.078-2.434.115-3.651.186-6.085,2.31-.135,3.467-.2,5.783-.314q-1.969,11.277-3.936,22.555" transform="translate(-154.287 -232.698)" fill="#1c1c1c"/>
  </g>
  <path id="Path_21300" data-name="Path 21300" d="M347.818,220.309a425.708,425.708,0,0,0-52.779-13.245c-.544-.1-1.088-.2-1.632-.3-1.149-.2-2.292-.406-3.442-.6-4.336-.748-5.357-2.315-4.741-6.62.711-4.96,1.11-9.967,1.543-14.974a.074.074,0,0,1,.006-.034c.149-1.8.3-3.6.482-5.4.195-2,.594-3.986-.344-5.912-.949-1.955-2.465-3.388-4.513-3.173-2.2.232-1.388,2.518-1.571,3.928-.4,3.045-.516,6.143-.888,9.19-.089.737-.189,1.468-.317,2.2,0,.029-.011.064-.016.093-.994,5.9-.206,12.131-2.521,18.1-2.226-1.531-1.215-3.243-1.088-4.647.417-4.741.827-9.48,1.266-14.214l.034-.4c.533-5.743,1.111-11.481,1.793-17.208a8.9,8.9,0,0,0-.133-3.354,7.086,7.086,0,0,0-2.687-3.806c-8.627-6.967-18.537-7.873-28.058-2.036a43.777,43.777,0,0,0-17.859,21.513,68.889,68.889,0,0,1-7.872,14.684,7.78,7.78,0,0,1-7.3,3.614c-11.353-.331-22.717-.4-34.081-.331-16.049.1-17.382-.719-23.8-16.274-.455-1.107-.827-2.257-1.333-3.342-3.986-8.534-9.7-15.467-17.676-20.143-6.712-3.933-13.535-4.566-19.975-2.123a27.716,27.716,0,0,0-7.573,4.426,8.043,8.043,0,0,0-2.381,2.855,7.642,7.642,0,0,0-.517,4.317q.567,4.561,1.055,9.138c.672,6.144,1.254,12.3,1.816,18.461.256,2.773,1.115,5.692-.233,8.825-2.332-1.492-1.793-3.493-1.96-5.117-.854-8.18-1.576-16.361-2.409-24.541,0-.023-.006-.052-.006-.075-.139-1.387.272-3.354-1.56-3.69a3.091,3.091,0,0,0-.355-.041c-1.593-.1-2.847.986-3.819,2.349-1.277,1.793-1.044,3.824-.855,5.814.295,3.121.566,6.248.861,9.369.05.563.105,1.126.16,1.689.317,3.324.672,6.637,1.122,9.938.572,4.189-.322,6.185-4.725,6.759-.433.058-.866.116-1.3.18q-1.89.271-3.77.6c-4.757.835-9.493,1.932-14.207,3.023-13.6,3.156-27.17,6.492-40.332,11.522q28.146-5.744,56.471-9.445c.81-.11,1.621-.215,2.431-.319q10.159-1.3,20.33-2.327,39.089-3.976,78.5-4.131a715.055,715.055,0,0,1,74.68,3.522q11.242,1.122,22.451,2.645c.427.052.854.11,1.277.168q29.445,4.037,58.614,10.86a16.529,16.529,0,0,0-4.258-1.961M116.194,164.294l.067-.052c4.607-3.307,9.537-5.077,15.183-3.406,7.084,2.094,12.319,6.649,17.016,13.71a164.665,164.665,0,0,0-30.389,2.32c-1.726.319-3.3,0-3.287-2.141.028-3.231-2.154-6.857.555-9.689a6.317,6.317,0,0,1,.855-.743m35.319,24.895c-.166,3.063-2.043,4.827-4.963,4.67s-4.624-2.089-4.485-5.169c.144-3.1,2.076-4.571,4.974-4.775,2.843.522,4.647,2.17,4.475,5.274m88.848,4.676c-2.942.087-4.736-1.706-4.83-4.78s1.61-4.949,4.547-5.088c3.025-.139,4.375,1.967,5.018,4.432-.339,3.348-1.787,5.343-4.735,5.436m25.8-17.527a163.339,163.339,0,0,0-27.986-1.642c5.091-6.974,10.01-11.545,16.716-13.7,5.813-1.868,10.965-.268,15.772,3.208,4.319,3.121,1.976,7.368,1.271,10.971-.733,3.724-3.858,1.439-5.774,1.166" transform="translate(-7.521 -31.044)"/>
  <path id="Path_21301" data-name="Path 21301" d="M273.92,152.326A39.958,39.958,0,0,0,254.6,171.564c-1.157,2.347-2.312,3.033-4.889,2.67a226.3,226.3,0,0,0-61.554-.1c-1.646.218-3.321,1.042-4.426-1.337a41.755,41.755,0,0,0-20.447-20.785c26.006-8.724,92.157-8.2,110.64.315" transform="translate(-32.905 -29.362)"/>
  <path id="Path_21302" data-name="Path 21302" d="M296.735,139.134c-.794-2.861-3.425-3.87-5.913-4.1a13.459,13.459,0,0,1-2.054-.4c-2.876-.731-6.018-1.92-7.661.708-3.6,5.761-5.629,3.434-8.216-.366-6.146-9.033-14.112-14.9-24.666-17.527-20.541-5.111-41.1-5.57-61.906-2.373-15.761,2.425-30.844,5.807-39.732,21.849-1.477,2.657-5.158,2.449-5.73.493a7.356,7.356,0,0,0-.688-1.659c-1.476-2.535-3.853-1.5-6.107-1.34a26.318,26.318,0,0,0-4.347.568,10.762,10.762,0,0,0-2.359.818c-.006,0-.006,0-.006.006a8.761,8.761,0,0,0-1.993,1.317,3.851,3.851,0,0,0-1.393,3.736,1.689,1.689,0,0,0,2.16,1.41,52.573,52.573,0,0,1,11.541-.232c5,.3,9.993.707,14.868-.348,17.454-3.777,35.008-5.836,57.093-6.214h.006q2.189-.043,4.447-.052c.677-.006,1.36-.012,2.043-.012a160.6,160.6,0,0,1,35.713,3.208c13.674,2.918,27.353,3.435,41.154,3.54.361.006.739.029,1.111.046,1.809.087,3.514.052,2.637-3.081m-83.962-6.492c-.5-.018-.989-.023-1.488-.023h-.006a297.993,297.993,0,0,0-58.342,5.065c4.408-8.239,9.016-13.547,16.889-15.4,27.486-6.468,54.938-6.294,82.458-.325,7.888,1.712,11.93,7.229,14.967,15.648a374.036,374.036,0,0,0-54.478-4.967" transform="translate(-24.968 -22.784)"/>
  <path id="Path_21303" data-name="Path 21303" d="M87.163,305.535a3.365,3.365,0,0,1,.87-1.746,4.512,4.512,0,0,1,1.753-1.076,15.911,15.911,0,0,1,2.5-.644,19.315,19.315,0,0,1,2.5-.3,6.115,6.115,0,0,1,1.983.193,2.862,2.862,0,0,1,1.416.9,3.888,3.888,0,0,1,.794,1.772l-1.242.213a2.085,2.085,0,0,0-1.709-1.736,10.645,10.645,0,0,0-3.523.17,12.9,12.9,0,0,0-1.985.508,3.707,3.707,0,0,0-1.39.819,2.516,2.516,0,0,0-.7,1.315,5.357,5.357,0,0,0,.065,2.047c.348,1.848.523,2.771.873,4.619a5.6,5.6,0,0,0,.683,1.952,2.523,2.523,0,0,0,1.114,1,3.458,3.458,0,0,0,1.561.252,15.274,15.274,0,0,0,1.993-.239A10.4,10.4,0,0,0,98,314.506a2.1,2.1,0,0,0,.983-2.2c.49-.085.735-.127,1.225-.211a4.128,4.128,0,0,1-.2,1.921,3.074,3.074,0,0,1-.989,1.311,5.419,5.419,0,0,1-1.713.86,19.042,19.042,0,0,1-2.371.569,15.935,15.935,0,0,1-2.507.272,4.405,4.405,0,0,1-1.982-.379,3.392,3.392,0,0,1-1.427-1.311,7.36,7.36,0,0,1-.881-2.517c-.352-1.848-.529-2.771-.88-4.618a7.181,7.181,0,0,1-.1-2.665" transform="translate(-17.549 -60.811)"/>
  <path id="Path_21304" data-name="Path 21304" d="M136.606,309.687a2.572,2.572,0,0,1-1-1.789c-.172-1.347-.258-2.02-.43-3.366a2.418,2.418,0,0,1,.236-1.432,3.486,3.486,0,0,1,1.007-1.178,5.983,5.983,0,0,1,1.6-.858,9.08,9.08,0,0,1,2.046-.473,9.408,9.408,0,0,1,2.257.064,25.83,25.83,0,0,1,2.94.573c-.052-.472-.078-.707-.13-1.179a4.579,4.579,0,0,0-.644-2.006,3.685,3.685,0,0,0-1.256-1.216,4.42,4.42,0,0,0-1.69-.546,8.066,8.066,0,0,0-1.947,0,12.774,12.774,0,0,0-2.395.517,15.256,15.256,0,0,0-2.137.864l-.634-.99a16.507,16.507,0,0,1,2.438-1.028,13.345,13.345,0,0,1,2.624-.586,9.682,9.682,0,0,1,2.419,0,5.647,5.647,0,0,1,2.113.706,4.424,4.424,0,0,1,1.569,1.575,6.217,6.217,0,0,1,.786,2.566l1.01,9.266c-3.516.383-5.274.588-8.786,1.021a2.617,2.617,0,0,1-1.995-.513m8.79-7.241a13.031,13.031,0,0,0-2.624-.608,10.518,10.518,0,0,0-2.563-.029,6.732,6.732,0,0,0-2.829.9,1.694,1.694,0,0,0-.965,1.665c.169,1.347.254,2.02.424,3.367a1.382,1.382,0,0,0,.537.962,1.411,1.411,0,0,0,1.074.279c3.027-.375,4.543-.552,7.574-.889-.251-2.259-.377-3.389-.628-5.648" transform="translate(-27.09 -59.447)"/>
  <path id="Path_21305" data-name="Path 21305" d="M183.538,294.038a5.774,5.774,0,0,1,2.134-2.181,9.089,9.089,0,0,1,3.556-1.147l.068,1.225a7.262,7.262,0,0,0-4.16,1.8,4.575,4.575,0,0,0-1.372,3.814c.216,3.362.324,5.043.54,8.4l-1.23.08c-.394-5.956-.592-8.933-.987-14.889l1.26-.082.192,2.978" transform="translate(-36.695 -58.585)"/>
  <path id="Path_21306" data-name="Path 21306" d="M223.342,296.2q.793,3.3,1.652,6.6c1.147-5.311,1.733-7.965,2.93-13.27.757,0,1.135-.006,1.892-.008,1.261,5.295,1.877,7.943,3.085,13.244q.789-3.31,1.554-6.618t1.629-6.613c.539,0,.808.006,1.346.011q-1,3.712-1.9,7.446t-1.855,7.452c-.656,0-.985,0-1.642,0q-.778-3.434-1.573-6.806t-1.565-6.8c-1.253,5.451-1.866,8.178-3.064,13.635l-1.642.018c-1.5-5.951-2.268-8.925-3.838-14.866l1.3-.022q.895,3.3,1.686,6.6" transform="translate(-44.406 -58.345)"/>
  <path id="Path_21307" data-name="Path 21307" d="M273.861,304.763a2.57,2.57,0,0,1-.665-1.936c.068-1.356.1-2.034.169-3.39a2.422,2.422,0,0,1,.485-1.368,3.487,3.487,0,0,1,1.2-.982,5.943,5.943,0,0,1,1.721-.562,9,9,0,0,1,2.094-.105,9.327,9.327,0,0,1,2.207.46,25.982,25.982,0,0,1,2.79,1.082c.032-.474.048-.711.079-1.183a4.586,4.586,0,0,0-.279-2.088,3.694,3.694,0,0,0-1.02-1.418,4.446,4.446,0,0,0-1.566-.836,8.107,8.107,0,0,0-1.916-.341,12.776,12.776,0,0,0-2.444.087,15.269,15.269,0,0,0-2.252.474c-.179-.435-.269-.652-.449-1.087a16.451,16.451,0,0,1,2.577-.581,13.226,13.226,0,0,1,2.682-.115,9.675,9.675,0,0,1,2.377.431,5.626,5.626,0,0,1,1.953,1.067,4.429,4.429,0,0,1,1.265,1.826,6.22,6.22,0,0,1,.322,2.665c-.256,3.719-.384,5.579-.64,9.3-3.526-.243-5.29-.351-8.818-.543a2.607,2.607,0,0,1-1.868-.856m9.916-5.578a12.988,12.988,0,0,0-2.473-1.061,10.472,10.472,0,0,0-2.514-.48,6.712,6.712,0,0,0-2.939.387,1.7,1.7,0,0,0-1.242,1.469c-.07,1.356-.106,2.034-.176,3.389a1.385,1.385,0,0,0,.359,1.042,1.408,1.408,0,0,0,1.006.464c3.041.165,4.563.257,7.6.46.152-2.268.227-3.4.378-5.67" transform="translate(-55.054 -58.613)"/>
  <path id="Path_21308" data-name="Path 21308" d="M322.553,308.014a6.242,6.242,0,0,0,2.542.792q.819.1,1.688.122a6.081,6.081,0,0,0,1.6-.152,3.13,3.13,0,0,0,1.238-.586,1.715,1.715,0,0,0,.609-1.18,1.637,1.637,0,0,0-.575-1.392,9.788,9.788,0,0,0-1.7-1.3q-1.031-.642-2.249-1.323a17.6,17.6,0,0,1-2.237-1.477,7.781,7.781,0,0,1-1.669-1.754,3.142,3.142,0,0,1-.514-2.176,2.227,2.227,0,0,1,.591-1.313,3.694,3.694,0,0,1,1.261-.866,5.756,5.756,0,0,1,1.7-.421,8.659,8.659,0,0,1,1.907.019,10.467,10.467,0,0,1,1.821.386,6.278,6.278,0,0,1,1.607.735,4.022,4.022,0,0,1,1.119,1.048,2.45,2.45,0,0,1,.443,1.334c-.252,0-.471-.006-.655,0s-.389.006-.614,0a2.008,2.008,0,0,0-1.255-1.64,7.828,7.828,0,0,0-2.638-.775,6.835,6.835,0,0,0-1.417-.023,5.212,5.212,0,0,0-1.279.263,2.49,2.49,0,0,0-.93.552,1.359,1.359,0,0,0-.412.838,2.334,2.334,0,0,0,.555,1.791,7.788,7.788,0,0,0,1.694,1.514q1.032.7,2.25,1.381a24.745,24.745,0,0,1,2.237,1.409,7.939,7.939,0,0,1,1.666,1.551,2.327,2.327,0,0,1,.521,1.8,2.731,2.731,0,0,1-.8,1.71,3.741,3.741,0,0,1-1.587.869,7.824,7.824,0,0,1-2.025.262,16.328,16.328,0,0,1-2.08-.108,7.763,7.763,0,0,1-3.292-1.083,3.849,3.849,0,0,1-1.665-2.739l1.252-.024a2.924,2.924,0,0,0,1.294,1.958" transform="translate(-64.489 -59.438)"/>
  <path id="Path_21309" data-name="Path 21309" d="M371.671,301.054a6.416,6.416,0,0,1,3.181-.276,4.5,4.5,0,0,1,2.87,1.761,5.035,5.035,0,0,1,.574,4.083l-1.838,9.638-1.216-.231c.727-3.856,1.092-5.784,1.819-9.641a3.959,3.959,0,0,0-.374-3.128,3.138,3.138,0,0,0-2.015-1.268,5.072,5.072,0,0,0-2,.052,8.156,8.156,0,0,0-1.985.7,5.568,5.568,0,0,0-1.6,1.192,2.949,2.949,0,0,0-.79,1.481c-.631,3.624-.946,5.437-1.578,9.061l-1.218-.211c1.4-8.138,2.1-12.208,3.5-20.346l1.259.218c-.6,3.448-.9,5.172-1.5,8.62a7.631,7.631,0,0,1,2.909-1.709" transform="translate(-73.657 -59.233)"/>
  <rect id="Rectangle_8744" data-name="Rectangle 8744" width="374.355" height="308.444" fill="none"/>
</svg>
